<svg width="104" height="48" viewBox="0 0 104 48" fill="none" xmlns="http://www.w3.org/2000/svg">
<path d="M43.6168 25.3546L45.0651 24.7363C46.4034 24.2444 47.5563 23.3496 48.3649 22.1752C49.1735 21.0008 49.5982 19.6046 49.5803 18.1789C49.5803 15.7476 48.91 13.8756 47.3296 12.6217C45.4333 11.1213 42.6686 10.6871 38.716 10.6871H20.5997C14.3201 10.6871 10.7218 13.7679 10.7218 18.3282C10.7218 22.4475 13.4101 24.646 17.835 26.1881C21.0373 27.3343 22.4961 28.2721 22.4961 29.9392C22.4961 31.6758 20.8393 32.8255 18.0747 32.8255C15.5045 32.8255 10.6663 32.8255 10.6663 32.8255V37.3824H18.1129C25.4066 37.3824 28.6576 33.9855 28.6576 29.5224C28.6576 25.7193 26.2506 23.2706 21.534 21.534C18.1129 20.2246 17.0188 19.4779 17.0188 17.776C17.0188 16.4457 18.1962 15.2996 20.6136 15.2162H30.6859V37.3337H36.6529V27.0912H37.6949C40.147 27.1329 40.9667 28.7896 42.6095 31.7592C44.2906 34.7948 45.5097 36.5974 45.9438 37.3476H52.734C52.2199 36.3057 50.1291 33.1485 48.4862 30.5019C46.892 27.9248 45.4541 26.1117 43.5994 25.3615L43.6168 25.3546ZM38.6118 22.5343H36.4689V15.1711C37.5803 15.1711 37.2781 15.1711 38.7404 15.1711C41.9253 15.1711 43.2243 16.4249 43.2243 18.8735C43.2243 21.2041 41.644 22.5135 38.6431 22.5135" fill="#292829"/>
<path d="M82.7461 23.3366L91.9188 10.7079H84.7466L76.7582 22.8642V10.7079H48.8161C48.7469 10.7142 48.6813 10.7411 48.6275 10.7851C48.5738 10.8291 48.5345 10.8882 48.5147 10.9547C48.4949 11.0213 48.4955 11.0922 48.5164 11.1584C48.5373 11.2247 48.5776 11.2831 48.632 11.3262C48.823 11.4477 49.0071 11.5763 49.1808 11.7117C50.1551 12.4964 50.8436 13.5804 51.1397 14.7959C51.2028 15.0357 51.3439 15.2478 51.5407 15.3987C51.7375 15.5495 51.9788 15.6308 52.2268 15.6295H57.4714V37.3511H63.5148V15.6295H70.7843V37.3511H76.7582V24.3751L85.3301 37.3337H92.7177L82.7461 23.3366Z" fill="#292829"/>
<path d="M102.043 -0.000110739H1.33372C0.979995 -0.000110739 0.640758 0.140406 0.390637 0.390527C0.140516 0.640647 0 0.979884 0 1.33361L0 46.6662C0 47.0199 0.140516 47.3591 0.390637 47.6092C0.640758 47.8594 0.979995 47.9999 1.33372 47.9999H102.057C102.411 47.9999 102.75 47.8594 103 47.6092C103.251 47.3591 103.391 47.0199 103.391 46.6662V1.33361C103.391 1.15729 103.356 0.982713 103.288 0.819987C103.22 0.65726 103.121 0.509611 102.995 0.38558C102.87 0.26155 102.722 0.1636 102.558 0.0973971C102.395 0.0311943 102.22 -0.00194742 102.043 -0.000110739ZM98.0423 42.665H5.3314V5.33477H98.0423V42.665Z" fill="#B51827"/>
</svg>
