<svg width="121" height="258" viewBox="0 0 121 258" fill="none" xmlns="http://www.w3.org/2000/svg">
    <path fill-rule="evenodd" clip-rule="evenodd" d="M38.9578 4.29666C34.1454 4.44343 27.3326 6.9223 21.5661 11.2727C15.5869 15.7836 10.4777 22.503 9.98689 31.1246L9.98447 31.1672V31.2099V75.4067C8.3969 75.698 6.45765 76.2053 4.73804 76.9754C3.62247 77.4751 2.51747 78.1212 1.66227 78.9572C0.79493 79.8049 0.115868 80.9217 0.0683441 82.305C0.00706482 84.0887 -0.00666809 85.177 0.0027771 85.8165C0.00733948 86.1252 0.0176849 86.3738 0.0383606 86.5565L0.039093 86.5632C0.044754 86.6156 0.0686798 86.8372 0.162071 87.0626C0.191093 87.1326 0.261063 87.2897 0.398567 87.4554C0.527748 87.611 0.865814 87.9489 1.43531 87.9955C1.71894 88.0187 1.95959 87.9623 2.15284 87.8782L9.98447 85.3386V219.105C9.98447 221.494 10.8143 227.978 12.3731 234.352C13.1563 237.554 14.1384 240.793 15.3222 243.518C16.4785 246.179 17.9313 248.603 19.7826 249.889C23.5641 252.517 29.6202 254.404 36.4675 255.699C43.3681 257.005 51.2684 257.744 58.8897 257.967C67.5267 258.219 76.4709 257.011 84.0055 255.222C91.4889 253.445 97.7713 251.049 100.983 248.817C102.83 247.534 104.236 245.204 105.328 242.654C106.442 240.05 107.329 236.977 108.017 233.944C109.389 227.895 110.019 221.77 110.019 219.409V85.6428L117.85 88.1824C118.043 88.2665 118.284 88.323 118.568 88.2998C119.137 88.2531 119.475 87.9153 119.604 87.7597C119.742 87.594 119.812 87.4369 119.841 87.3669C119.934 87.1414 119.958 86.9198 119.964 86.8674L119.965 86.8607C119.985 86.6781 119.996 86.4295 120 86.1208C120.01 85.4812 119.996 84.393 119.935 82.6092C119.887 81.2259 119.208 80.1092 118.341 79.2614C117.486 78.4255 116.381 77.7793 115.265 77.2797C113.545 76.5095 111.606 76.0022 110.019 75.7109V31.5142V31.4715L110.016 31.4289C109.525 22.8073 104.416 16.0879 98.4369 11.577C92.6784 7.23258 85.8764 4.75455 81.0652 4.60154C78.9494 3.24605 75.7613 2.14033 72.2117 1.35565C68.3903 0.510871 63.9852 0.00270187 59.6973 7.62241e-06C55.5037 -0.00262738 50.9007 0.67822 47.0579 1.56247C45.1322 2.00559 43.3748 2.50494 41.9343 3.00597C40.7647 3.41278 39.7184 3.84939 38.9578 4.29666ZM47.7306 4.48607C51.4221 3.63664 55.7908 2.99755 59.6954 3.00001C63.7637 3.00256 67.9523 3.48648 71.5641 4.28493C75.2192 5.09292 78.1233 6.18831 79.736 7.32136L80.1241 7.594H80.5983C84.6165 7.594 91.0585 9.76849 96.6301 13.9719C102.16 18.1435 106.58 24.1196 107.019 31.5576V76.9948V78.3184L108.332 78.4831C109.864 78.6754 112.158 79.1751 114.039 80.0176C114.98 80.4393 115.737 80.9111 116.244 81.4067C116.739 81.8906 116.923 82.3192 116.936 82.7122C116.965 83.5464 116.983 84.2163 116.993 84.7506L108.981 82.1527L107.019 81.5163V83.5795V219.409C107.019 221.489 106.428 227.385 105.091 233.28C104.425 236.219 103.586 239.099 102.57 241.473C101.531 243.899 100.399 245.57 99.2713 246.354C96.533 248.256 90.6984 250.549 83.3123 252.303C75.9775 254.045 67.2999 255.211 58.9773 254.968C51.4744 254.749 43.7363 254.021 37.0251 252.751C30.2605 251.472 24.7313 249.675 21.4945 247.426C20.3708 246.645 19.1917 244.896 18.0738 242.322C16.9834 239.812 16.0489 236.754 15.2873 233.64C13.7566 227.381 12.9845 221.157 12.9845 219.105V83.2753V81.212L11.0218 81.8484L3.01029 84.4463C3.02016 83.9121 3.03792 83.2422 3.06657 82.408C3.08007 82.015 3.2643 81.5863 3.75928 81.1025C4.2664 80.6068 5.02274 80.1351 5.96431 79.7134C7.84535 78.8709 10.1391 78.3711 11.6712 78.1789L12.9845 78.0141V76.6906V31.2534C13.4231 23.8154 17.8434 17.8393 23.3729 13.6676C28.9445 9.46423 35.3865 7.28974 39.4047 7.28974H39.8789L40.267 7.0171C40.6731 6.73179 41.5607 6.31223 42.9199 5.83947C44.2389 5.3807 45.8892 4.90979 47.7306 4.48607ZM82.1613 10.4676L84.2828 13.6615C85.4044 15.35 86.5767 17.9727 87.6752 20.9001C88.7637 23.801 89.7439 26.9021 90.5008 29.485L90.5958 29.8091L90.8205 30.0613L101.195 41.6991L103.815 44.6377V40.7009V28.4506V27.9854L103.552 27.6018L98.822 20.711L98.5431 20.3047L98.0776 20.1429L94.6674 18.9582C94.0502 17.8529 93.0656 16.4121 91.7904 15.0737C90.2991 13.5086 88.2918 11.9592 85.8869 11.374L82.1613 10.4676ZM89.6184 17.1432C90.8986 18.4868 91.8291 19.9538 92.2759 20.8505L92.5485 21.3979L93.1262 21.5986L96.6275 22.815L100.815 28.9159V36.7642L93.2841 28.3165C92.5286 25.7581 91.5616 22.7181 90.4839 19.8461C90.0913 18.7999 89.6795 17.7633 89.2529 16.7727C89.3767 16.8938 89.4986 17.0174 89.6184 17.1432ZM35.8729 13.6615L37.9944 10.4676L34.2688 11.374C31.864 11.9592 29.8566 13.5086 28.3654 15.0737C27.0902 16.4121 26.1056 17.8529 25.4883 18.9582L22.0782 20.1429L21.6127 20.3047L21.3338 20.711L16.6041 27.6018L16.3408 27.9854V28.4506V40.7009V44.6377L18.9605 41.6991L29.3352 30.0613L29.56 29.8091L29.655 29.485C30.4119 26.9021 31.392 23.801 32.4806 20.9001C33.5791 17.9727 34.7514 15.35 35.8729 13.6615ZM27.8799 20.8505C28.3266 19.9538 29.2572 18.4868 30.5373 17.1432C30.6572 17.0174 30.7791 16.8938 30.9029 16.7727C30.4763 17.7633 30.0644 18.7999 29.6718 19.8461C28.5941 22.7181 27.6272 25.7581 26.8716 28.3165L19.3408 36.7642V28.9159L23.5283 22.815L27.0295 21.5986L27.6072 21.3979L27.8799 20.8505Z" fill="#817A6C"/>
    <path d="M65.0024 114C65.0024 115.657 66.3456 117 68.0024 117H92.0024C93.662 117 95.0024 115.663 95.0024 114.008V113.971V113.933V113.895V113.857V113.819V113.78V113.742V113.703V113.664V113.626V113.587V113.547V113.508V113.469V113.429V113.39V113.35V113.31V113.27V113.23V113.19V113.149V113.109V113.068V113.027V112.986V112.945V112.904V112.863V112.822V112.78V112.739V112.697V112.655V112.613V112.571V112.529V112.487V112.445V112.402V112.36V112.317V112.274V112.231V112.188V112.145V112.102V112.059V112.015V111.972V111.928V111.884V111.84V111.796V111.752V111.708V111.664V111.62V111.575V111.531V111.486V111.441V111.396V111.352V111.307V111.261V111.216V111.171V111.125V111.08V111.034V110.989V110.943V110.897V110.851V110.805V110.759V110.713V110.667V110.62V110.574V110.527V110.481V110.434V110.387V110.34V110.293V110.246V110.199V110.152V110.105V110.057V110.01V109.963V109.915V109.867V109.82V109.772V109.724V109.676V109.628V109.58V109.532V109.483V109.435V109.387V109.338V109.29V109.241V109.193V109.144V109.095V109.046V108.998V108.949V108.9V108.85V108.801V108.752V108.703V108.654V108.604V108.555V108.505V108.456V108.406V108.356V108.307V108.257V108.207V108.157V108.107V108.057V108.007V107.957V107.907V107.857V107.807V107.756V107.706V107.656V107.605V107.555V107.504V107.454V107.403V107.352V107.302V107.251V107.2V107.149V107.099V107.048V106.997V106.946V106.895V106.844V106.793V106.741V106.69V106.639V106.588V106.537V106.485V106.434V106.383V106.331V106.28V106.229V106.177V106.126V106.074V106.022V105.971V105.919V105.868V105.816V105.764V105.713V105.661V105.609V105.557V105.506V105.454V105.402V105.35V105.298V105.247V105.195V105.143V105.091V105.039V104.987V104.935V104.883V104.831V104.779V104.727V104.675V104.623V104.571V104.519V104.467V104.415V104.363V104.311V104.258V104.206V104.154V104.102V104.05V103.998V103.946V103.894V103.842V103.79V103.738V103.685V103.633V103.581V103.529V103.477V103.425V103.373V103.321V103.269V103.217V103.165V103.113V103.061V103.009V102.957V102.905V102.853V102.801V102.749V102.697V102.645V102.593V102.541V102.489V102.437V102.385V102.334V102.282V102.23V102.178V102.126V102.075V102.023V101.971V101.92V101.868V101.816V101.765V101.713V101.662V101.61V101.559V101.507V101.456V101.404V101.353V101.302V101.25V101.199V101.148V101.097V101.045V100.994V100.943V100.892V100.841V100.79V100.739V100.688V100.637V100.586V100.536V100.485V100.434V100.383V100.333V100.282V100.232V100.181V100.131V100.08V100.03V99.9795V99.9292V99.879V99.8288V99.7787V99.7286V99.6785V99.6286V99.5786V99.5288V99.4789V99.4292V99.3795V99.3298V99.2802V99.2306V99.1812V99.1317V99.0824V99.033V98.9838V98.9346V98.8855V98.8364V98.7874V98.7384V98.6895V98.6407V98.592V98.5433V98.4946V98.4461V98.3976V98.3492V98.3008V98.2525V98.2043V98.1562V98.1081V98.0601V98.0122V97.9643V97.9165V97.8688V97.8212V97.7736V97.7261V97.6787V97.6314V97.5841V97.5369V97.4898V97.4428V97.3959V97.349V97.3023V97.2556V97.209V97.1624V97.116V97.0696V97.0234V96.9772V96.9311V96.8851V96.8391V96.7933V96.7476V96.7019V96.6563V96.6109V96.5655V96.5202V96.475V96.4299V96.3849V96.34V96.2951V96.2504V96.2058V96.1613V96.1168V96.0725V96.0283V95.9841V95.9401V95.8961V95.8523V95.8086V95.765V95.7214V95.678V95.6347V95.5915V95.5484V95.5054V95.4625V95.4197V95.3771V95.3345V95.2921V95.2497V95.2075V95.1654V95.1234V95.0815V95.0397V94.998V94.9565V94.915V94.8737V94.8325V94.7914V94.7505V94.7096V94.6689V94.6283V94.5878V94.5474V94.5072V94.4671V94.4271V94.3872V94.3475V94.3078V94.2683V94.229V94.1897V94.1506V94.1116V94.0727V94.034V93.9954V93.9569V93.9186V93.8804V93.8423V93.8044V93.7666V93.7289V93.6914V93.654V93.6167V93.5796V93.5426V93.5057V93.469V93.4324V93.396V93.3597V93.3235V93.2875V93.2517V93.2159V93.1804V93.1449V93.1096V93.0745V93.0395V93.0046V92.9699V92.9354V92.901V92.8667V92.8326V92.7987V92.7648V92.7312V92.6977V92.6643V92.6312V92.5981V92.5652V92.5325V92.4999V92.4675V92.4353V92.4032V92.3712V92.3395V92.3078V92.2764V92.2451V92.214V92.183V92.1522V92.1215V92.0911V92.0607V92.0306V92.0006V91.9708V91.9412V91.9117V91.8824V91.8532V91.8243V91.7955V91.7669V91.7384V91.7101V91.682V91.6541V91.6263V91.5987V91.5713V91.5441V91.5171V91.4902V91.4635V91.437V91.4106V91.3845V91.3585V91.3327V91.3071V91.2817V91.2564V91.2314V91.2065V91.1818V91.1573V91.133C95.0024 90.795 94.9553 90.5279 94.8571 90.3079C94.3614 89.1977 93.5867 88.4264 92.7091 87.5527C92.5273 87.3716 92.341 87.1862 92.1519 86.9924C91.0906 85.905 90.0027 84.584 90.0027 82.5001V82.477V82.454V82.431V82.408V82.3851V82.3621V82.3393V82.3164V82.2936V82.2708V82.248V82.2252V82.2025V82.1798V82.1572V82.1345V82.1119V82.0893V82.0668V82.0443V82.0218V81.9993V81.9768V81.9544V81.932V81.9097V81.8874V81.8651V81.8428V81.8205V81.7983V81.7761V81.754V81.7318V81.7097V81.6876V81.6656V81.6436V81.6216V81.5996V81.5776V81.5557V81.5338V81.512V81.4901V81.4683V81.4466V81.4248V81.4031V81.3814V81.3597V81.3381V81.3165V81.2949V81.2733V81.2518V81.2303V81.2088V81.1873V81.1659V81.1445V81.1231V81.1018V81.0805V81.0592V81.0379V81.0167V80.9955V80.9743V80.9531V80.932V80.9109V80.8899V80.8688V80.8478V80.8268V80.8058V80.7849V80.764V80.7431V80.7222V80.7014V80.6806V80.6598V80.6391V80.6183V80.5976V80.577V80.5563V80.5357V80.5151V80.4946V80.474V80.4535V80.433V80.4126V80.3921V80.3717V80.3513V80.331V80.3107V80.2904V80.2701V80.2499V80.2296V80.2094V80.1893V80.1691V80.149V80.1289V80.1089V80.0888V80.0688V80.0488V80.0289V80.009V79.989V79.9692V79.9493V79.9295V79.9097V79.8899V79.8702V79.8504V79.8308V79.8111V79.7914V79.7718V79.7522V79.7327V79.7131V79.6936V79.6741V79.6547V79.6352V79.6158V79.5964V79.5771V79.5577V79.5384V79.5192V79.4999V79.4807V79.4615V79.4423V79.4231V79.404V79.3849V79.3658V79.3468V79.3278V79.3088V79.2898V79.2708V79.2519V79.233V79.2142V79.1953V79.1765V79.1577V79.1389V79.1202V79.1015V79.0828V79.0641V79.0455V79.0269V79.0083V78.9897V78.9712V78.9526V78.9341V78.9157V78.8972V78.8788V78.8604V78.8421V78.8237V78.8054V78.7871V78.7689V78.7506V78.7324V78.7142V78.6961V78.6779V78.6598V78.6417V78.6237V78.6056V78.5876V78.5696V78.5517V78.5337V78.5158V78.4979V78.4801V78.4622V78.4444V78.4266V78.4089V78.3911V78.3734V78.3557V78.338V78.3204V78.3028V78.2852V78.2676V78.2501V78.2326V78.2151V78.1976V78.1802V78.1627V78.1453V78.128V78.1106V78.0933V78.076V78.0587V78.0415V78.0243V78.0071V77.9899V77.9727V77.9556V77.9385V77.9214V77.9044V77.8873V77.8703V77.8534V77.8364V77.8195V77.8026V77.7857V77.7688V77.752V77.7352V77.7184V77.7016V77.6849V77.6681V77.6515V77.6348V77.6181V77.6015V77.5849V77.5684V77.5518V77.5353V77.5188V77.5023V77.4859V77.4694V77.453V77.4366V77.4203V77.4039V77.3876V77.3713V77.3551V77.3388V77.3226V77.3064V77.2903V77.2741V77.258V77.2419V77.2258V77.2098V77.1938V77.1778V77.1618V77.1458V77.1299V77.114V77.0981V77.0822V77.0664V77.0506V77.0348V77.019V77.0033V76.9875V76.9718V76.9562V76.9405V76.9249V76.9093V76.8937V76.8781V76.8626V76.8471V76.8316V76.8161V76.8007V76.7853V76.7699V76.7545V76.7391V76.7238V76.7085V76.6932V76.678V76.6627V76.6475V76.6323V76.6172V76.602V76.5869V76.5718V76.5567V76.5417V76.5266V76.5116V76.4966V76.4817V76.4667V76.4518V76.4369V76.4221V76.4072V76.3924V76.3776V76.3628V76.348V76.3333V76.3186V76.3039V76.2892V76.2746V76.26V76.2454V76.2308V76.2162V76.2017V76.1872V76.1727V76.1582V76.1438V76.1294V76.115V76.1006V76.0862V76.0719V76.0576V76.0433V76.029V76.0148V76.0006V75.9864V75.9722V75.958V75.9439V75.9298V75.9157V75.9016V75.8876V75.8736V75.8596V75.8456V75.8316V75.8177V75.8038V75.7899V75.776V75.7622V75.7484V75.7346V75.7208V75.707V75.6933V75.6796V75.6659V75.6522V75.6386V75.6249V75.6113V75.5977V75.5842V75.5706V75.5571V75.5436V75.5301V75.5167V75.5032V75.4898V75.4764V75.4631V75.4497V75.4364V75.4231V75.4098V75.3965V75.3833V75.3701V75.3569V75.3437V75.3306V75.3174V75.3043V75.2912V75.2782V75.2651V75.2521V75.2391V75.2261V75.2131V75.2002V75.1873V75.1744V75.1615V75.1486V75.1358V75.123V75.1102V75.0974V75.0847V75.0719V75.0592V75.0465V75.0339V75.0212V75.0086V74.996V74.9834V74.9708V74.9583V74.9458V74.9333V74.9208V74.9083V74.8959V74.8835V74.8711V74.8587V74.8463V74.834V74.8217V74.8094V74.7971V74.7849V74.7726V74.7604V74.7482V74.7361V74.7239V74.7118V74.6997V74.6876V74.6755V74.6635V74.6514V74.6394V74.6275V74.6155V74.6035V74.5916V74.5797V74.5678V74.556V74.5441V74.5323V74.5205V74.5087V74.4969V74.4852V74.4735V74.4618V74.4501V74.4384V74.4268V74.4152V74.4036V74.392V74.3804V74.3689V74.3574V74.3459V74.3344V74.3229V74.3115V74.3001V74.2887V74.2773V74.2659V74.2546V74.2432V74.2319V74.2207V74.2094V74.1982V74.1869V74.1757V74.1645V74.1534V74.1422V74.1311V74.12V74.1089V74.0979V74.0868V74.0758V74.0648V74.0538V74.0428V74.0319V74.0209V74.01V73.9991C90.0027 72.3426 88.6598 71 87.0027 71H68.0024C66.3456 71 65.0024 72.3432 65.0024 74V114Z" fill="#B51827" stroke="white" stroke-width="2"/>
    <path d="M56.0024 114C56.0024 116.209 54.2116 118 52.0024 118H28.0024C25.7933 118 24.0024 116.218 24.0024 114.008C24.0024 107.588 24.0024 95.2671 24.0024 91.133C24.0024 90.707 24.061 90.2891 24.2347 89.9002C25.6183 86.8013 29.0022 85.8493 29.0022 82.5001C29.0022 78.5626 29.0022 75.8561 29.0022 73.9991C29.0022 71.79 30.7931 70 33.0022 70H52.0024C54.2116 70 56.0024 71.7909 56.0024 74V114Z" fill="#C0BCB5"/>
    <path d="M34 146C34 143.791 35.7909 142 38 142H44C46.2091 142 48 143.791 48 146V151C48 152.657 49.3431 154 51 154C52.6569 154 54 155.343 54 157V176C54 178.209 52.2091 180 50 180H28C25.7909 180 24 178.209 24 176L24 154C24 151.791 25.7909 150 28 150H30C32.2091 150 34 148.209 34 146Z" fill="#C4C4C4"/>
    <path d="M86 146C86 143.791 84.2091 142 82 142H76C73.7909 142 72 143.791 72 146V151C72 152.657 70.6569 154 69 154C67.3431 154 66 155.343 66 157V176C66 178.209 67.7909 180 70 180H92C94.2091 180 96 178.209 96 176L96 154C96 151.791 94.2091 150 92 150H90C87.7909 150 86 148.209 86 146Z" fill="#C4C4C4"/>
    <rect x="50" y="142" width="20" height="10" rx="2" fill="#C4C4C4"/>
</svg>
