<svg width="121" height="258" viewBox="0 0 121 258" fill="none" xmlns="http://www.w3.org/2000/svg">
    <path fill-rule="evenodd" clip-rule="evenodd" d="M39.9547 4.29666C35.1423 4.44343 28.3295 6.9223 22.563 11.2727C16.5839 15.7836 11.4747 22.503 10.9838 31.1246L10.9814 31.1672V31.2099V75.4067C9.39384 75.698 7.4546 76.2053 5.73499 76.9754C4.61942 77.4751 3.51442 78.1212 2.65922 78.9572C1.79188 79.8049 1.11282 80.9217 1.06529 82.305C1.00401 84.0887 0.99028 85.177 0.999725 85.8165C1.00429 86.1252 1.01463 86.3738 1.03531 86.5565L1.03604 86.5632C1.0417 86.6156 1.06563 86.8372 1.15902 87.0626C1.18804 87.1326 1.25801 87.2897 1.39552 87.4554C1.5247 87.611 1.86276 87.9489 2.43226 87.9955C2.71589 88.0187 2.95654 87.9623 3.14979 87.8782L10.9814 85.3386V219.105C10.9814 221.494 11.8112 227.978 13.3701 234.352C14.1532 237.554 15.1353 240.793 16.3192 243.518C17.4755 246.179 18.9283 248.603 20.7796 249.889C24.5611 252.517 30.6172 254.404 37.4644 255.699C44.3651 257.005 52.2653 257.744 59.8866 257.967C68.5237 258.219 77.4678 257.011 85.0024 255.222C92.4858 253.445 98.7683 251.049 101.98 248.817C103.827 247.534 105.232 245.204 106.324 242.654C107.439 240.05 108.326 236.977 109.014 233.944C110.386 227.895 111.015 221.77 111.015 219.409V85.6428L118.847 88.1824C119.04 88.2665 119.281 88.323 119.565 88.2998C120.134 88.2531 120.472 87.9153 120.601 87.7597C120.739 87.594 120.809 87.4369 120.838 87.3669C120.931 87.1414 120.955 86.9198 120.961 86.8674L120.962 86.8607C120.982 86.6781 120.993 86.4295 120.997 86.1208C121.007 85.4812 120.993 84.393 120.932 82.6092C120.884 81.2259 120.205 80.1092 119.338 79.2614C118.482 78.4255 117.377 77.7793 116.262 77.2797C114.542 76.5095 112.603 76.0022 111.015 75.7109V31.5142V31.4715L111.013 31.4289C110.522 22.8073 105.413 16.0879 99.4339 11.577C93.6753 7.23258 86.8734 4.75455 82.0621 4.60154C79.9463 3.24605 76.7582 2.14033 73.2086 1.35565C69.3872 0.510871 64.9821 0.00270187 60.6942 7.62241e-06C56.5006 -0.00262738 51.8976 0.67822 48.0548 1.56247C46.1292 2.00559 44.3718 2.50494 42.9313 3.00597C41.7617 3.41278 40.7153 3.84939 39.9547 4.29666ZM48.7276 4.48607C52.419 3.63664 56.7878 2.99755 60.6924 3.00001C64.7606 3.00256 68.9492 3.48648 72.5611 4.28493C76.2161 5.09292 79.1203 6.18831 80.7329 7.32136L81.121 7.594H81.5953C85.6135 7.594 92.0555 9.76849 97.6271 13.9719C103.157 18.1435 107.577 24.1196 108.015 31.5576V76.9948V78.3184L109.329 78.4831C110.861 78.6754 113.155 79.1751 115.036 80.0176C115.977 80.4393 116.734 80.9111 117.241 81.4067C117.736 81.8906 117.92 82.3192 117.933 82.7122C117.962 83.5464 117.98 84.2163 117.99 84.7506L109.978 82.1527L108.015 81.5163V83.5795V219.409C108.015 221.489 107.425 227.385 106.088 233.28C105.422 236.219 104.583 239.099 103.567 241.473C102.527 243.899 101.396 245.57 100.268 246.354C97.5299 248.256 91.6953 250.549 84.3093 252.303C76.9744 254.045 68.2968 255.211 59.9743 254.968C52.4714 254.749 44.7333 254.021 38.0221 252.751C31.2575 251.472 25.7282 249.675 22.4915 247.426C21.3677 246.645 20.1887 244.896 19.0707 242.322C17.9803 239.812 17.0458 236.754 16.2842 233.64C14.7535 227.381 13.9814 221.157 13.9814 219.105V83.2753V81.212L12.0187 81.8484L4.00724 84.4463C4.01711 83.9121 4.03487 83.2422 4.06352 82.408C4.07702 82.015 4.26125 81.5863 4.75623 81.1025C5.26334 80.6068 6.01968 80.1351 6.96126 79.7134C8.8423 78.8709 11.1361 78.3711 12.6681 78.1789L13.9814 78.0141V76.6906V31.2534C14.4201 23.8154 18.8403 17.8393 24.3698 13.6676C29.9414 9.46423 36.3834 7.28974 40.4016 7.28974H40.8759L41.2639 7.0171C41.67 6.73179 42.5576 6.31223 43.9168 5.83947C45.2358 5.3807 46.8862 4.90979 48.7276 4.48607ZM83.1583 10.4676L85.2798 13.6615C86.4013 15.35 87.5736 17.9727 88.6721 20.9001C89.7607 23.801 90.7408 26.9021 91.4977 29.485L91.5927 29.8091L91.8175 30.0613L102.192 41.6991L104.812 44.6377V40.7009V28.4506V27.9854L104.549 27.6018L99.819 20.711L99.5401 20.3047L99.0745 20.1429L95.6644 18.9582C95.0471 17.8529 94.0626 16.4121 92.7873 15.0737C91.2961 13.5086 89.2887 11.9592 86.8839 11.374L83.1583 10.4676ZM90.6154 17.1432C91.8955 18.4868 92.8261 19.9538 93.2728 20.8505L93.5455 21.3979L94.1232 21.5986L97.6244 22.815L101.812 28.9159V36.7642L94.2811 28.3165C93.5255 25.7581 92.5586 22.7181 91.4809 19.8461C91.0883 18.7999 90.6764 17.7633 90.2498 16.7727C90.3737 16.8938 90.4955 17.0174 90.6154 17.1432ZM36.8699 13.6615L38.9914 10.4676L35.2658 11.374C32.8609 11.9592 30.8536 13.5086 29.3623 15.0737C28.0871 16.4121 27.1025 17.8529 26.4853 18.9582L23.0751 20.1429L22.6096 20.3047L22.3307 20.711L17.6011 27.6018L17.3378 27.9854V28.4506V40.7009V44.6377L19.9574 41.6991L30.3322 30.0613L30.557 29.8091L30.652 29.485C31.4088 26.9021 32.389 23.801 33.4775 20.9001C34.576 17.9727 35.7483 15.35 36.8699 13.6615ZM28.8768 20.8505C29.3236 19.9538 30.2541 18.4868 31.5343 17.1432C31.6541 17.0174 31.776 16.8938 31.8998 16.7727C31.4733 17.7633 31.0614 18.7999 30.6688 19.8461C29.5911 22.7181 28.6241 25.7581 27.8686 28.3165L20.3378 36.7642V28.9159L24.5252 22.815L28.0265 21.5986L28.6042 21.3979L28.8768 20.8505Z" fill="#817A6C"/>
    <path d="M55.9998 114C55.9998 115.657 54.6566 117 52.9998 117H28.9998C27.3402 117 25.9998 115.662 25.9998 114.008V113.971V113.933V113.895V113.857V113.819V113.78V113.742V113.703V113.664V113.625V113.586V113.547V113.508V113.469V113.429V113.39V113.35V113.31V113.27V113.23V113.189V113.149V113.109V113.068V113.027V112.986V112.945V112.904V112.863V112.822V112.78V112.739V112.697V112.655V112.613V112.571V112.529V112.487V112.445V112.402V112.36V112.317V112.274V112.231V112.188V112.145V112.102V112.059V112.015V111.972V111.928V111.884V111.84V111.796V111.752V111.708V111.664V111.62V111.575V111.531V111.486V111.441V111.396V111.352V111.306V111.261V111.216V111.171V111.125V111.08V111.034V110.989V110.943V110.897V110.851V110.805V110.759V110.713V110.667V110.62V110.574V110.527V110.481V110.434V110.387V110.34V110.293V110.246V110.199V110.152V110.105V110.057V110.01V109.962V109.915V109.867V109.82V109.772V109.724V109.676V109.628V109.58V109.532V109.483V109.435V109.387V109.338V109.29V109.241V109.193V109.144V109.095V109.046V108.997V108.949V108.9V108.85V108.801V108.752V108.703V108.654V108.604V108.555V108.505V108.456V108.406V108.356V108.307V108.257V108.207V108.157V108.107V108.057V108.007V107.957V107.907V107.857V107.807V107.756V107.706V107.656V107.605V107.555V107.504V107.454V107.403V107.352V107.302V107.251V107.2V107.149V107.098V107.048V106.997V106.946V106.895V106.844V106.793V106.741V106.69V106.639V106.588V106.537V106.485V106.434V106.383V106.331V106.28V106.228V106.177V106.126V106.074V106.022V105.971V105.919V105.868V105.816V105.764V105.713V105.661V105.609V105.557V105.506V105.454V105.402V105.35V105.298V105.246V105.195V105.143V105.091V105.039V104.987V104.935V104.883V104.831V104.779V104.727V104.675V104.623V104.571V104.519V104.467V104.415V104.363V104.311V104.258V104.206V104.154V104.102V104.05V103.998V103.946V103.894V103.842V103.79V103.738V103.685V103.633V103.581V103.529V103.477V103.425V103.373V103.321V103.269V103.217V103.165V103.113V103.061V103.009V102.957V102.905V102.853V102.801V102.749V102.697V102.645V102.593V102.541V102.489V102.437V102.385V102.334V102.282V102.23V102.178V102.126V102.075V102.023V101.971V101.92V101.868V101.816V101.765V101.713V101.662V101.61V101.559V101.507V101.456V101.404V101.353V101.302V101.25V101.199V101.148V101.097V101.045V100.994V100.943V100.892V100.841V100.79V100.739V100.688V100.637V100.586V100.536V100.485V100.434V100.383V100.333V100.282V100.232V100.181V100.131V100.08V100.03V99.9795V99.9292V99.8789V99.8288V99.7786V99.7285V99.6785V99.6285V99.5786V99.5287V99.4789V99.4291V99.3794V99.3298V99.2802V99.2306V99.1811V99.1317V99.0823V99.033V98.9838V98.9346V98.8854V98.8364V98.7873V98.7384V98.6895V98.6407V98.5919V98.5432V98.4946V98.4461V98.3976V98.3491V98.3008V98.2525V98.2043V98.1561V98.1081V98.0601V98.0121V97.9643V97.9165V97.8688V97.8211V97.7736V97.7261V97.6787V97.6313V97.5841V97.5369V97.4898V97.4428V97.3959V97.349V97.3022V97.2555V97.2089V97.1624V97.116V97.0696V97.0233V96.9771V96.931V96.885V96.8391V96.7933V96.7475V96.7019V96.6563V96.6108V96.5654V96.5202V96.475V96.4298V96.3848V96.3399V96.2951V96.2504V96.2058V96.1612V96.1168V96.0725V96.0282V95.9841V95.9401V95.8961V95.8523V95.8086V95.7649V95.7214V95.678V95.6347V95.5915V95.5484V95.5054V95.4625V95.4197V95.377V95.3345V95.292V95.2497V95.2075V95.1653V95.1233V95.0814V95.0397V94.998V94.9564V94.915V94.8737V94.8325V94.7914V94.7504V94.7096V94.6689V94.6283V94.5878V94.5474V94.5072V94.467V94.427V94.3872V94.3474V94.3078V94.2683V94.2289V94.1897V94.1506V94.1116V94.0727V94.034V93.9954V93.9569V93.9186V93.8804V93.8423V93.8043V93.7665V93.7289V93.6913V93.6539V93.6167V93.5795V93.5425V93.5057V93.469V93.4324V93.396V93.3597V93.3235V93.2875V93.2516V93.2159V93.1803V93.1449V93.1096V93.0745V93.0395V93.0046V92.9699V92.9353V92.9009V92.8667V92.8326V92.7986V92.7648V92.7312V92.6977V92.6643V92.6311V92.5981V92.5652V92.5325V92.4999V92.4675V92.4352V92.4031V92.3712V92.3394V92.3078V92.2764V92.2451V92.2139V92.183V92.1522V92.1215V92.091V92.0607V92.0306V92.0006V91.9708V91.9411V91.9117V91.8823V91.8532V91.8242V91.7954V91.7668V91.7384V91.7101V91.682V91.6541V91.6263V91.5987V91.5713V91.5441V91.517V91.4902V91.4635V91.4369V91.4106V91.3845V91.3585V91.3327V91.3071V91.2816V91.2564V91.2313V91.2065V91.1818V91.1573V91.133C25.9998 90.795 26.0469 90.5279 26.1451 90.3078C26.6408 89.1977 27.4155 88.4264 28.2931 87.5527C28.4749 87.3716 28.6612 87.1862 28.8503 86.9924C29.9116 85.905 30.9995 84.5839 30.9995 82.5V82.477V82.4539V82.4309V82.408V82.385V82.3621V82.3392V82.3164V82.2935V82.2707V82.248V82.2252V82.2025V82.1798V82.1571V82.1345V82.1119V82.0893V82.0667V82.0442V82.0217V81.9993V81.9768V81.9544V81.932V81.9097V81.8873V81.865V81.8428V81.8205V81.7983V81.7761V81.7539V81.7318V81.7097V81.6876V81.6656V81.6435V81.6215V81.5996V81.5776V81.5557V81.5338V81.5119V81.4901V81.4683V81.4465V81.4248V81.403V81.3813V81.3597V81.338V81.3164V81.2948V81.2733V81.2517V81.2302V81.2088V81.1873V81.1659V81.1445V81.1231V81.1018V81.0804V81.0592V81.0379V81.0167V80.9955V80.9743V80.9531V80.932V80.9109V80.8898V80.8688V80.8478V80.8268V80.8058V80.7849V80.7639V80.7431V80.7222V80.7014V80.6806V80.6598V80.639V80.6183V80.5976V80.5769V80.5563V80.5357V80.5151V80.4945V80.474V80.4535V80.433V80.4125V80.3921V80.3717V80.3513V80.331V80.3106V80.2903V80.2701V80.2498V80.2296V80.2094V80.1892V80.1691V80.149V80.1289V80.1088V80.0888V80.0688V80.0488V80.0289V80.0089V79.989V79.9691V79.9493V79.9295V79.9097V79.8899V79.8701V79.8504V79.8307V79.8111V79.7914V79.7718V79.7522V79.7326V79.7131V79.6936V79.6741V79.6546V79.6352V79.6158V79.5964V79.577V79.5577V79.5384V79.5191V79.4999V79.4806V79.4614V79.4423V79.4231V79.404V79.3849V79.3658V79.3468V79.3277V79.3087V79.2898V79.2708V79.2519V79.233V79.2141V79.1953V79.1765V79.1577V79.1389V79.1202V79.1014V79.0827V79.0641V79.0454V79.0268V79.0082V78.9897V78.9711V78.9526V78.9341V78.9157V78.8972V78.8788V78.8604V78.842V78.8237V78.8054V78.7871V78.7688V78.7506V78.7324V78.7142V78.696V78.6779V78.6598V78.6417V78.6236V78.6056V78.5876V78.5696V78.5516V78.5337V78.5158V78.4979V78.48V78.4622V78.4444V78.4266V78.4088V78.3911V78.3734V78.3557V78.338V78.3204V78.3027V78.2852V78.2676V78.25V78.2325V78.215V78.1976V78.1801V78.1627V78.1453V78.1279V78.1106V78.0933V78.076V78.0587V78.0415V78.0242V78.007V77.9898V77.9727V77.9556V77.9385V77.9214V77.9043V77.8873V77.8703V77.8533V77.8364V77.8194V77.8025V77.7856V77.7688V77.7519V77.7351V77.7183V77.7016V77.6848V77.6681V77.6514V77.6348V77.6181V77.6015V77.5849V77.5683V77.5518V77.5353V77.5187V77.5023V77.4858V77.4694V77.453V77.4366V77.4202V77.4039V77.3876V77.3713V77.3551V77.3388V77.3226V77.3064V77.2902V77.2741V77.258V77.2419V77.2258V77.2098V77.1937V77.1777V77.1617V77.1458V77.1299V77.1139V77.0981V77.0822V77.0664V77.0505V77.0348V77.019V77.0032V76.9875V76.9718V76.9561V76.9405V76.9249V76.9093V76.8937V76.8781V76.8626V76.8471V76.8316V76.8161V76.8007V76.7852V76.7698V76.7545V76.7391V76.7238V76.7085V76.6932V76.6779V76.6627V76.6475V76.6323V76.6171V76.602V76.5869V76.5718V76.5567V76.5416V76.5266V76.5116V76.4966V76.4816V76.4667V76.4518V76.4369V76.422V76.4072V76.3923V76.3775V76.3628V76.348V76.3333V76.3186V76.3039V76.2892V76.2746V76.2599V76.2453V76.2308V76.2162V76.2017V76.1872V76.1727V76.1582V76.1438V76.1293V76.1149V76.1006V76.0862V76.0719V76.0576V76.0433V76.029V76.0148V76.0005V75.9863V75.9722V75.958V75.9439V75.9298V75.9157V75.9016V75.8876V75.8735V75.8595V75.8456V75.8316V75.8177V75.8038V75.7899V75.776V75.7622V75.7483V75.7345V75.7208V75.707V75.6933V75.6795V75.6658V75.6522V75.6385V75.6249V75.6113V75.5977V75.5841V75.5706V75.5571V75.5436V75.5301V75.5166V75.5032V75.4898V75.4764V75.463V75.4497V75.4364V75.4231V75.4098V75.3965V75.3833V75.3701V75.3569V75.3437V75.3305V75.3174V75.3043V75.2912V75.2781V75.2651V75.2521V75.239V75.2261V75.2131V75.2002V75.1872V75.1743V75.1615V75.1486V75.1358V75.1229V75.1102V75.0974V75.0846V75.0719V75.0592V75.0465V75.0338V75.0212V75.0086V74.9959V74.9834V74.9708V74.9583V74.9457V74.9332V74.9208V74.9083V74.8959V74.8834V74.871V74.8587V74.8463V74.834V74.8217V74.8094V74.7971V74.7848V74.7726V74.7604V74.7482V74.736V74.7239V74.7118V74.6996V74.6876V74.6755V74.6634V74.6514V74.6394V74.6274V74.6155V74.6035V74.5916V74.5797V74.5678V74.5559V74.5441V74.5323V74.5205V74.5087V74.4969V74.4852V74.4735V74.4618V74.4501V74.4384V74.4268V74.4151V74.4035V74.392V74.3804V74.3689V74.3573V74.3458V74.3344V74.3229V74.3115V74.3V74.2886V74.2772V74.2659V74.2545V74.2432V74.2319V74.2206V74.2094V74.1981V74.1869V74.1757V74.1645V74.1534V74.1422V74.1311V74.12V74.1089V74.0978V74.0868V74.0757V74.0647V74.0538V74.0428V74.0318V74.0209V74.01V73.9991C30.9995 72.3425 32.3424 71 33.9995 71H52.9998C54.6566 71 55.9998 72.3431 55.9998 74V114Z" fill="#B51827" stroke="white" stroke-width="2"/>
    <path d="M65 114C65 116.209 66.7909 118 69 118H93C95.2091 118 97 116.217 97 114.008C97 107.588 97 95.267 97 91.133C97 90.707 96.9414 90.2891 96.7678 89.9001C95.3841 86.8013 92.0002 85.8492 92.0002 82.5C92.0002 78.5626 92.0002 75.8561 92.0002 73.9991C92.0002 71.79 90.2094 70 88.0002 70H69C66.7909 70 65 71.7909 65 74V114Z" fill="#C0BCB5"/>
    <path d="M33 146C33 143.791 34.7909 142 37 142H45C47.2091 142 49 143.791 49 146V147C49 148.657 50.3431 150 52 150C53.6569 150 55 151.343 55 153V176.5C55 178.709 53.2091 180.5 51 180.5H27C24.7909 180.5 23 178.709 23 176.5L23 154C23 151.791 24.7909 150 27 150H29C31.2091 150 33 148.209 33 146Z" fill="#C4C4C4"/>
    <path d="M87 146C87 143.791 85.2091 142 83 142H75C72.7909 142 71 143.791 71 146V147C71 148.657 69.6569 150 68 150C66.3431 150 65 151.343 65 153V176.5C65 178.709 66.7909 180.5 69 180.5H93C95.2091 180.5 97 178.709 97 176.5L97 154C97 151.791 95.2091 150 93 150H91C88.7909 150 87 148.209 87 146Z" fill="#C4C4C4"/>
</svg>
