<svg width="121" height="258" viewBox="0 0 121 258" fill="none" xmlns="http://www.w3.org/2000/svg">
    <path fill-rule="evenodd" clip-rule="evenodd" d="M38.9576 4.29666C34.1453 4.44343 27.3324 6.9223 21.5659 11.2727C15.5868 15.7836 10.4776 22.503 9.98677 31.1246L9.98434 31.1672V31.2099V75.4067C8.39677 75.698 6.45753 76.2053 4.73792 76.9754C3.62235 77.4751 2.51735 78.1212 1.66215 78.9572C0.794807 79.8049 0.115746 80.9217 0.068222 82.305C0.00694275 84.0887 -0.00679016 85.177 0.00265503 85.8165C0.00721741 86.1252 0.0175629 86.3738 0.0382385 86.5565L0.0389709 86.5632C0.044632 86.6156 0.0685577 86.8372 0.161949 87.0626C0.190971 87.1326 0.260941 87.2897 0.398445 87.4554C0.527626 87.611 0.865692 87.9489 1.43519 87.9955C1.71882 88.0187 1.95947 87.9623 2.15272 87.8782L9.98434 85.3386V219.105C9.98434 221.494 10.8142 227.978 12.373 234.352C13.1562 237.554 14.1383 240.793 15.3221 243.518C16.4784 246.179 17.9312 248.603 19.7825 249.889C23.564 252.517 29.6201 254.404 36.4673 255.699C43.368 257.005 51.2683 257.744 58.8896 257.967C67.5266 258.219 76.4708 257.011 84.0054 255.222C91.4887 253.445 97.7712 251.049 100.983 248.817C102.83 247.534 104.235 245.204 105.327 242.654C106.442 240.05 107.329 236.977 108.017 233.944C109.388 227.895 110.018 221.77 110.018 219.409V85.6428L117.85 88.1824C118.043 88.2665 118.284 88.323 118.568 88.2998C119.137 88.2531 119.475 87.9153 119.604 87.7597C119.742 87.594 119.812 87.4369 119.841 87.3669C119.934 87.1414 119.958 86.9198 119.964 86.8674L119.965 86.8607C119.985 86.6781 119.996 86.4295 120 86.1208C120.01 85.4812 119.996 84.393 119.935 82.6092C119.887 81.2259 119.208 80.1092 118.341 79.2614C117.485 78.4255 116.38 77.7793 115.265 77.2797C113.545 76.5095 111.606 76.0022 110.018 75.7109V31.5142V31.4715L110.016 31.4289C109.525 22.8073 104.416 16.0879 98.4368 11.577C92.6783 7.23258 85.8763 4.75455 81.0651 4.60154C78.9493 3.24605 75.7612 2.14033 72.2116 1.35565C68.3901 0.510871 63.9851 0.00270187 59.6972 7.62241e-06C55.5035 -0.00262738 50.9006 0.67822 47.0578 1.56247C45.1321 2.00559 43.3747 2.50494 41.9342 3.00597C40.7646 3.41278 39.7182 3.84939 38.9576 4.29666ZM47.7305 4.48607C51.422 3.63664 55.7907 2.99755 59.6953 3.00001C63.7635 3.00256 67.9522 3.48648 71.564 4.28493C75.219 5.09292 78.1232 6.18831 79.7359 7.32136L80.1239 7.594H80.5982C84.6164 7.594 91.0584 9.76849 96.63 13.9719C102.159 18.1435 106.58 24.1196 107.018 31.5576V76.9948V78.3184L108.332 78.4831C109.864 78.6754 112.158 79.1751 114.039 80.0176C114.98 80.4393 115.736 80.9111 116.244 81.4067C116.739 81.8906 116.923 82.3192 116.936 82.7122C116.965 83.5464 116.983 84.2163 116.993 84.7506L108.981 82.1527L107.018 81.5163V83.5795V219.409C107.018 221.489 106.428 227.385 105.091 233.28C104.425 236.219 103.586 239.099 102.57 241.473C101.53 243.899 100.399 245.57 99.2712 246.354C96.5328 248.256 90.6982 250.549 83.3122 252.303C75.9774 254.045 67.2998 255.211 58.9772 254.968C51.4743 254.749 43.7362 254.021 37.025 252.751C30.2604 251.472 24.7311 249.675 21.4944 247.426C20.3706 246.645 19.1916 244.896 18.0737 242.322C16.9833 239.812 16.0488 236.754 15.2871 233.64C13.7565 227.381 12.9843 221.157 12.9843 219.105V83.2753V81.212L11.0217 81.8484L3.01017 84.4463C3.02004 83.9121 3.0378 83.2422 3.06645 82.408C3.07995 82.015 3.26418 81.5863 3.75916 81.1025C4.26627 80.6068 5.02261 80.1351 5.96419 79.7134C7.84523 78.8709 10.139 78.3711 11.6711 78.1789L12.9843 78.0141V76.6906V31.2534C13.423 23.8154 17.8433 17.8393 23.3727 13.6676C28.9443 9.46423 35.3863 7.28974 39.4046 7.28974H39.8788L40.2669 7.0171C40.673 6.73179 41.5605 6.31223 42.9198 5.83947C44.2388 5.3807 45.8891 4.90979 47.7305 4.48607ZM82.1612 10.4676L84.2827 13.6615C85.4043 15.35 86.5766 17.9727 87.675 20.9001C88.7636 23.801 89.7437 26.9021 90.5006 29.485L90.5956 29.8091L90.8204 30.0613L101.195 41.6991L103.815 44.6377V40.7009V28.4506V27.9854L103.552 27.6018L98.8219 20.711L98.543 20.3047L98.0774 20.1429L94.6673 18.9582C94.0501 17.8529 93.0655 16.4121 91.7903 15.0737C90.299 13.5086 88.2917 11.9592 85.8868 11.374L82.1612 10.4676ZM89.6183 17.1432C90.8985 18.4868 91.829 19.9538 92.2757 20.8505L92.5484 21.3979L93.1261 21.5986L96.6274 22.815L100.815 28.9159V36.7642L93.284 28.3165C92.5285 25.7581 91.5615 22.7181 90.4838 19.8461C90.0912 18.7999 89.6793 17.7633 89.2528 16.7727C89.3766 16.8938 89.4985 17.0174 89.6183 17.1432ZM35.8728 13.6615L37.9943 10.4676L34.2687 11.374C31.8638 11.9592 29.8565 13.5086 28.3652 15.0737C27.09 16.4121 26.1055 17.8529 25.4882 18.9582L22.0781 20.1429L21.6125 20.3047L21.3336 20.711L16.604 27.6018L16.3407 27.9854V28.4506V40.7009V44.6377L18.9604 41.6991L29.3351 30.0613L29.5599 29.8091L29.6549 29.485C30.4118 26.9021 31.3919 23.801 32.4805 20.9001C33.579 17.9727 34.7513 15.35 35.8728 13.6615ZM27.8798 20.8505C28.3265 19.9538 29.257 18.4868 30.5372 17.1432C30.6571 17.0174 30.7789 16.8938 30.9027 16.7727C30.4762 17.7633 30.0643 18.7999 29.6717 19.8461C28.594 22.7181 27.6271 25.7581 26.8715 28.3165L19.3407 36.7642V28.9159L23.5282 22.815L27.0294 21.5986L27.6071 21.3979L27.8798 20.8505Z" fill="#817A6C"/>
    <path d="M55.0026 114C55.0026 115.657 53.6594 117 52.0026 117H28.0026C26.343 117 25.0026 115.662 25.0026 114.008V113.971V113.933V113.895V113.857V113.819V113.78V113.742V113.703V113.664V113.625V113.586V113.547V113.508V113.469V113.429V113.39V113.35V113.31V113.27V113.23V113.189V113.149V113.109V113.068V113.027V112.986V112.945V112.904V112.863V112.822V112.78V112.739V112.697V112.655V112.613V112.571V112.529V112.487V112.445V112.402V112.36V112.317V112.274V112.231V112.188V112.145V112.102V112.059V112.015V111.972V111.928V111.884V111.84V111.796V111.752V111.708V111.664V111.62V111.575V111.531V111.486V111.441V111.396V111.352V111.306V111.261V111.216V111.171V111.125V111.08V111.034V110.989V110.943V110.897V110.851V110.805V110.759V110.713V110.667V110.62V110.574V110.527V110.481V110.434V110.387V110.34V110.293V110.246V110.199V110.152V110.105V110.057V110.01V109.962V109.915V109.867V109.82V109.772V109.724V109.676V109.628V109.58V109.532V109.483V109.435V109.387V109.338V109.29V109.241V109.193V109.144V109.095V109.046V108.997V108.949V108.9V108.85V108.801V108.752V108.703V108.654V108.604V108.555V108.505V108.456V108.406V108.356V108.307V108.257V108.207V108.157V108.107V108.057V108.007V107.957V107.907V107.857V107.807V107.756V107.706V107.656V107.605V107.555V107.504V107.454V107.403V107.352V107.302V107.251V107.2V107.149V107.098V107.048V106.997V106.946V106.895V106.844V106.793V106.741V106.69V106.639V106.588V106.537V106.485V106.434V106.383V106.331V106.28V106.228V106.177V106.126V106.074V106.022V105.971V105.919V105.868V105.816V105.764V105.713V105.661V105.609V105.557V105.506V105.454V105.402V105.35V105.298V105.246V105.195V105.143V105.091V105.039V104.987V104.935V104.883V104.831V104.779V104.727V104.675V104.623V104.571V104.519V104.467V104.415V104.363V104.311V104.258V104.206V104.154V104.102V104.05V103.998V103.946V103.894V103.842V103.79V103.738V103.685V103.633V103.581V103.529V103.477V103.425V103.373V103.321V103.269V103.217V103.165V103.113V103.061V103.009V102.957V102.905V102.853V102.801V102.749V102.697V102.645V102.593V102.541V102.489V102.437V102.385V102.334V102.282V102.23V102.178V102.126V102.075V102.023V101.971V101.92V101.868V101.816V101.765V101.713V101.662V101.61V101.559V101.507V101.456V101.404V101.353V101.302V101.25V101.199V101.148V101.097V101.045V100.994V100.943V100.892V100.841V100.79V100.739V100.688V100.637V100.586V100.536V100.485V100.434V100.383V100.333V100.282V100.232V100.181V100.131V100.08V100.03V99.9795V99.9292V99.8789V99.8288V99.7786V99.7285V99.6785V99.6285V99.5786V99.5287V99.4789V99.4291V99.3794V99.3298V99.2802V99.2306V99.1811V99.1317V99.0823V99.033V98.9838V98.9346V98.8854V98.8364V98.7873V98.7384V98.6895V98.6407V98.5919V98.5432V98.4946V98.4461V98.3976V98.3491V98.3008V98.2525V98.2043V98.1561V98.1081V98.0601V98.0121V97.9643V97.9165V97.8688V97.8211V97.7736V97.7261V97.6787V97.6313V97.5841V97.5369V97.4898V97.4428V97.3959V97.349V97.3022V97.2555V97.2089V97.1624V97.116V97.0696V97.0233V96.9771V96.931V96.885V96.8391V96.7933V96.7475V96.7019V96.6563V96.6108V96.5654V96.5202V96.475V96.4298V96.3848V96.3399V96.2951V96.2504V96.2058V96.1612V96.1168V96.0725V96.0282V95.9841V95.9401V95.8961V95.8523V95.8086V95.7649V95.7214V95.678V95.6347V95.5915V95.5484V95.5054V95.4625V95.4197V95.377V95.3345V95.292V95.2497V95.2075V95.1653V95.1233V95.0814V95.0397V94.998V94.9564V94.915V94.8737V94.8325V94.7914V94.7504V94.7096V94.6689V94.6283V94.5878V94.5474V94.5072V94.467V94.427V94.3872V94.3474V94.3078V94.2683V94.2289V94.1897V94.1506V94.1116V94.0727V94.034V93.9954V93.9569V93.9186V93.8804V93.8423V93.8043V93.7665V93.7289V93.6913V93.6539V93.6167V93.5795V93.5425V93.5057V93.469V93.4324V93.396V93.3597V93.3235V93.2875V93.2516V93.2159V93.1803V93.1449V93.1096V93.0745V93.0395V93.0046V92.9699V92.9353V92.9009V92.8667V92.8326V92.7986V92.7648V92.7312V92.6977V92.6643V92.6311V92.5981V92.5652V92.5325V92.4999V92.4675V92.4352V92.4031V92.3712V92.3394V92.3078V92.2764V92.2451V92.2139V92.183V92.1522V92.1215V92.091V92.0607V92.0306V92.0006V91.9708V91.9411V91.9117V91.8823V91.8532V91.8242V91.7954V91.7668V91.7384V91.7101V91.682V91.6541V91.6263V91.5987V91.5713V91.5441V91.517V91.4902V91.4635V91.4369V91.4106V91.3845V91.3585V91.3327V91.3071V91.2816V91.2564V91.2313V91.2065V91.1818V91.1573V91.133C25.0026 90.795 25.0497 90.5279 25.1479 90.3078C25.6436 89.1977 26.4183 88.4264 27.2959 87.5527C27.4777 87.3716 27.664 87.1862 27.8531 86.9924C28.9144 85.905 30.0023 84.5839 30.0023 82.5V82.477V82.4539V82.4309V82.408V82.385V82.3621V82.3392V82.3164V82.2935V82.2707V82.248V82.2252V82.2025V82.1798V82.1571V82.1345V82.1119V82.0893V82.0667V82.0442V82.0217V81.9993V81.9768V81.9544V81.932V81.9097V81.8873V81.865V81.8428V81.8205V81.7983V81.7761V81.7539V81.7318V81.7097V81.6876V81.6656V81.6435V81.6215V81.5996V81.5776V81.5557V81.5338V81.5119V81.4901V81.4683V81.4465V81.4248V81.403V81.3813V81.3597V81.338V81.3164V81.2948V81.2733V81.2517V81.2302V81.2088V81.1873V81.1659V81.1445V81.1231V81.1018V81.0804V81.0592V81.0379V81.0167V80.9955V80.9743V80.9531V80.932V80.9109V80.8898V80.8688V80.8478V80.8268V80.8058V80.7849V80.7639V80.7431V80.7222V80.7014V80.6806V80.6598V80.639V80.6183V80.5976V80.5769V80.5563V80.5357V80.5151V80.4945V80.474V80.4535V80.433V80.4125V80.3921V80.3717V80.3513V80.331V80.3106V80.2903V80.2701V80.2498V80.2296V80.2094V80.1892V80.1691V80.149V80.1289V80.1088V80.0888V80.0688V80.0488V80.0289V80.0089V79.989V79.9691V79.9493V79.9295V79.9097V79.8899V79.8701V79.8504V79.8307V79.8111V79.7914V79.7718V79.7522V79.7326V79.7131V79.6936V79.6741V79.6546V79.6352V79.6158V79.5964V79.577V79.5577V79.5384V79.5191V79.4999V79.4806V79.4614V79.4423V79.4231V79.404V79.3849V79.3658V79.3468V79.3277V79.3087V79.2898V79.2708V79.2519V79.233V79.2141V79.1953V79.1765V79.1577V79.1389V79.1202V79.1014V79.0827V79.0641V79.0454V79.0268V79.0082V78.9897V78.9711V78.9526V78.9341V78.9157V78.8972V78.8788V78.8604V78.842V78.8237V78.8054V78.7871V78.7688V78.7506V78.7324V78.7142V78.696V78.6779V78.6598V78.6417V78.6236V78.6056V78.5876V78.5696V78.5516V78.5337V78.5158V78.4979V78.48V78.4622V78.4444V78.4266V78.4088V78.3911V78.3734V78.3557V78.338V78.3204V78.3027V78.2852V78.2676V78.25V78.2325V78.215V78.1976V78.1801V78.1627V78.1453V78.1279V78.1106V78.0933V78.076V78.0587V78.0415V78.0242V78.007V77.9898V77.9727V77.9556V77.9385V77.9214V77.9043V77.8873V77.8703V77.8533V77.8364V77.8194V77.8025V77.7856V77.7688V77.7519V77.7351V77.7183V77.7016V77.6848V77.6681V77.6514V77.6348V77.6181V77.6015V77.5849V77.5683V77.5518V77.5353V77.5187V77.5023V77.4858V77.4694V77.453V77.4366V77.4202V77.4039V77.3876V77.3713V77.3551V77.3388V77.3226V77.3064V77.2902V77.2741V77.258V77.2419V77.2258V77.2098V77.1937V77.1777V77.1617V77.1458V77.1299V77.1139V77.0981V77.0822V77.0664V77.0505V77.0348V77.019V77.0032V76.9875V76.9718V76.9561V76.9405V76.9249V76.9093V76.8937V76.8781V76.8626V76.8471V76.8316V76.8161V76.8007V76.7852V76.7698V76.7545V76.7391V76.7238V76.7085V76.6932V76.6779V76.6627V76.6475V76.6323V76.6171V76.602V76.5869V76.5718V76.5567V76.5416V76.5266V76.5116V76.4966V76.4816V76.4667V76.4518V76.4369V76.422V76.4072V76.3923V76.3775V76.3628V76.348V76.3333V76.3186V76.3039V76.2892V76.2746V76.2599V76.2453V76.2308V76.2162V76.2017V76.1872V76.1727V76.1582V76.1438V76.1293V76.1149V76.1006V76.0862V76.0719V76.0576V76.0433V76.029V76.0148V76.0005V75.9863V75.9722V75.958V75.9439V75.9298V75.9157V75.9016V75.8876V75.8735V75.8595V75.8456V75.8316V75.8177V75.8038V75.7899V75.776V75.7622V75.7483V75.7345V75.7208V75.707V75.6933V75.6795V75.6658V75.6522V75.6385V75.6249V75.6113V75.5977V75.5841V75.5706V75.5571V75.5436V75.5301V75.5166V75.5032V75.4898V75.4764V75.463V75.4497V75.4364V75.4231V75.4098V75.3965V75.3833V75.3701V75.3569V75.3437V75.3305V75.3174V75.3043V75.2912V75.2781V75.2651V75.2521V75.239V75.2261V75.2131V75.2002V75.1872V75.1743V75.1615V75.1486V75.1358V75.1229V75.1102V75.0974V75.0846V75.0719V75.0592V75.0465V75.0338V75.0212V75.0086V74.9959V74.9834V74.9708V74.9583V74.9457V74.9332V74.9208V74.9083V74.8959V74.8834V74.871V74.8587V74.8463V74.834V74.8217V74.8094V74.7971V74.7848V74.7726V74.7604V74.7482V74.736V74.7239V74.7118V74.6996V74.6876V74.6755V74.6634V74.6514V74.6394V74.6274V74.6155V74.6035V74.5916V74.5797V74.5678V74.5559V74.5441V74.5323V74.5205V74.5087V74.4969V74.4852V74.4735V74.4618V74.4501V74.4384V74.4268V74.4151V74.4035V74.392V74.3804V74.3689V74.3573V74.3458V74.3344V74.3229V74.3115V74.3V74.2886V74.2772V74.2659V74.2545V74.2432V74.2319V74.2206V74.2094V74.1981V74.1869V74.1757V74.1645V74.1534V74.1422V74.1311V74.12V74.1089V74.0978V74.0868V74.0757V74.0647V74.0538V74.0428V74.0318V74.0209V74.01V73.9991C30.0023 72.3425 31.3452 71 33.0023 71H52.0026C53.6594 71 55.0026 72.3431 55.0026 74V114Z" fill="#B51827" stroke="white" stroke-width="2"/>
    <path d="M64.0028 114C64.0028 116.209 65.7937 118 68.0028 118H92.0028C94.2119 118 96.0028 116.217 96.0028 114.008C96.0028 107.588 96.0028 95.267 96.0028 91.133C96.0028 90.707 95.9442 90.2891 95.7706 89.9001C94.3869 86.8013 91.0031 85.8492 91.0031 82.5C91.0031 78.5626 91.0031 75.8561 91.0031 73.9991C91.0031 71.79 89.2122 70 87.0031 70H68.0028C65.7937 70 64.0028 71.7909 64.0028 74V114Z" fill="#C0BCB5"/>
    <path d="M34 138C34 135.791 35.7909 134 38 134H44C46.2091 134 48 135.791 48 138V143C48 144.657 49.3431 146 51 146C52.6569 146 54 147.343 54 149V168C54 170.209 52.2091 172 50 172H28C25.7909 172 24 170.209 24 168L24 146C24 143.791 25.7909 142 28 142H30C32.2091 142 34 140.209 34 138Z" fill="#C4C4C4"/>
    <path d="M86 138C86 135.791 84.2091 134 82 134H76C73.7909 134 72 135.791 72 138V143C72 144.657 70.6569 146 69 146C67.3431 146 66 147.343 66 149V168C66 170.209 67.7909 172 70 172H92C94.2091 172 96 170.209 96 168L96 146C96 143.791 94.2091 142 92 142H90C87.7909 142 86 140.209 86 138Z" fill="#C4C4C4"/>
    <rect x="50" y="134" width="20" height="10" rx="2" fill="#C4C4C4"/>
    <path d="M31 187C31 185.895 31.8954 185 33 185H87C88.1046 185 89 185.895 89 187V191.234C89 192.387 88.6679 193.515 88.0434 194.484L87.5499 195.25C86.4452 196.964 84.5456 198 82.5064 198H37.4936C35.4544 198 33.5548 196.964 32.4501 195.25L31.9566 194.484C31.3321 193.515 31 192.387 31 191.234V187Z" fill="#C4C4C4"/>
</svg>
