<svg width="130" height="50" viewBox="0 0 130 50" fill="none" xmlns="http://www.w3.org/2000/svg">
    <path d="M124.49 16.2976C128.108 20.0931 130.086 25.1641 129.997 30.4114C129.908 35.6586 127.759 40.6594 124.015 44.3295C123.478 41.2106 123.128 38.0626 122.964 34.902C122.514 28.5208 124.353 22.2024 124.49 16.2976Z" fill="#B51827"/>
    <path d="M97.8276 28.2951C103.133 29.3356 103.108 33.899 103.583 38.3244C103.971 41.9726 104.259 45.7336 104.409 49.1184C100.319 47.8904 96.7307 45.3779 94.1739 41.9515C91.617 38.525 90.2267 34.3661 90.2079 30.0878C90.2079 29.624 90.2079 29.1601 90.2079 28.7088L91.1839 28.5834C93.3622 28.0806 95.6141 27.9828 97.8276 28.2951Z" fill="#B51827"/>
    <path d="M95.3629 20.6229C94.4663 20.512 93.5637 20.4576 92.6603 20.4599C93.4444 19.0373 94.3981 17.7155 95.5005 16.5234C95.1541 17.8631 95.1071 19.2629 95.3629 20.6229Z" fill="#B51827"/>
    <path d="M99.5668 27.0916C97.1308 26.6943 94.6435 26.7367 92.2224 27.217C91.662 27.2842 91.0974 27.3093 90.5333 27.2922C88.9067 27.217 88.5189 26.5526 88.2686 25.2989C87.9433 23.7067 88.2686 21.9892 92.0222 21.4376H92.2098C93.463 21.2497 94.7416 21.3266 95.9634 21.6633C98.3782 27.1292 104.722 26.2893 104.722 26.2893C104.722 26.2893 105.185 25.9508 104.722 25.9508C100.43 25.9508 97.5149 23.4435 97.2896 19.4192C97.3897 16.3352 97.6775 15.6582 97.7401 14.4673C97.7401 14.3168 97.7401 14.1664 97.7401 13.9909C97.7401 11.5588 96.2387 10.3928 96.3012 7.52196C96.9143 7.52196 97.5524 11.0322 102.144 10.4931C105.072 9.91445 108.029 9.49594 111.003 9.23948C112.82 9.38955 114.597 9.8518 116.258 10.606C116.258 10.606 114.418 4.75137 116.37 2.29419C116.933 5.01464 120.386 7.44674 121.85 11.283C122.111 12.2071 122.299 13.1502 122.413 14.1037C122.645 17.4065 122.371 20.7254 121.6 23.9449C121.6 23.9449 116.17 20.5475 111.703 20.3971C105.36 20.184 105.66 23.4685 105.798 24.7347C105.935 26.0009 107.787 28.6713 112.942 27.7059C113.055 27.6056 113.292 27.4176 112.804 27.4552C108.338 27.7435 107.562 26.1138 107.487 24.6094C107.399 22.7916 108.175 22.0268 111.853 22.4155C115.21 22.839 118.389 24.1694 121.05 26.2642C121.05 26.2642 120.849 31.3792 120.849 35.2781C121.032 38.8787 121.45 42.4635 122.101 46.0094C119.882 47.6763 117.34 48.8607 114.639 49.4868C111.937 50.1128 109.135 50.1667 106.411 49.645C106.236 45.345 105.86 40.4181 105.585 37.7854C104.822 30.4389 103.671 28.2826 99.5668 27.0916Z" fill="white"/>
    <path d="M92.6603 20.4598C93.5637 20.4574 94.4663 20.5118 95.3629 20.6228C95.103 19.2637 95.1457 17.8639 95.488 16.5233C95.8137 15.6077 95.9458 14.6343 95.8758 13.6649C95.563 10.9319 93.6988 7.68495 95.5756 4.30006C96.1261 4.09948 97.59 8.06105 99.8796 8.65027C103.533 9.50276 108.801 6.61934 113.03 7.64734C112.792 3.88635 114.131 0.514002 116.783 0C118.835 4.83914 123.965 7.89807 124.453 14.0661C124.49 14.7969 124.49 15.5292 124.453 16.26C124.353 22.2024 122.514 28.5208 122.964 34.902C123.128 38.0626 123.478 41.2106 124.015 44.3295C123.401 44.9308 122.749 45.492 122.063 46.0094C121.413 42.4635 120.995 38.8787 120.812 35.2781C120.812 31.3792 121.012 26.2642 121.012 26.2642C118.352 24.1694 115.173 22.839 111.816 22.4155C108.15 22.0143 107.374 22.779 107.449 24.6094C107.524 26.1138 108.3 27.731 112.767 27.4552C113.255 27.4552 113.017 27.6056 112.904 27.7059C107.737 28.6838 105.885 26.0135 105.76 24.7348C105.728 24.3677 105.728 23.9986 105.76 23.6315C105.595 23.6954 105.423 23.7376 105.247 23.7569C101.581 24.1706 100.705 21.5379 100.705 21.5379C100.618 21.2872 100.981 21.1744 101.131 21.4627C101.844 22.8793 104.071 22.7164 105.247 22.6161C105.548 22.5774 105.84 22.4884 106.111 22.3528C106.686 21.2496 108.162 20.2717 111.716 20.3971C116.183 20.5475 121.613 23.945 121.613 23.945C122.384 20.7254 122.658 17.4065 122.426 14.1037C122.308 13.1498 122.115 12.2067 121.85 11.283C120.387 7.44676 116.921 5.01465 116.358 2.2942C114.406 4.80153 116.245 10.606 116.245 10.606C114.588 9.85752 112.815 9.39955 111.003 9.25203C108.029 9.50849 105.072 9.927 102.144 10.5057C97.615 11.0322 96.9143 7.52198 96.3012 7.52198C96.2387 10.3929 97.7401 11.5588 97.7401 13.9909C97.7401 14.1664 97.7401 14.3168 97.7401 14.4673C97.7401 15.7209 97.3898 16.3352 97.2897 19.4192C97.5149 23.3933 100.43 25.9759 104.722 25.9508C105.197 25.9508 104.722 26.2893 104.722 26.2893C104.722 26.2893 98.4658 27.1418 95.9634 21.6633C94.7416 21.3266 93.4631 21.2497 92.2099 21.4376H92.0222C88.2686 21.9892 87.8808 23.6942 88.2686 25.2989C88.5189 26.5526 88.9067 27.217 90.5333 27.2922C91.0974 27.3093 91.662 27.2842 92.2224 27.217C94.6435 26.7367 97.1308 26.6943 99.5668 27.0917C103.671 28.2826 104.834 30.4264 105.585 37.7854C105.86 40.4181 106.236 45.3074 106.411 49.645C105.736 49.5169 105.067 49.3537 104.409 49.1561C104.271 45.7712 103.971 42.0102 103.583 38.3621C103.108 33.874 103.133 29.3232 97.8277 28.3328C95.6328 28.0143 93.3984 28.0993 91.2339 28.5835L90.258 28.7089C88.4688 28.8844 86.2292 28.7089 86.1917 24.8727C86.1541 21.0365 89.9828 20.4723 92.6603 20.4598Z" fill="#221E20"/>
    <path d="M101.469 14.6554C103.283 15.4703 102.72 19.4193 99.767 18.4916C99.4927 18.3956 99.2411 18.2437 99.0283 18.0454C98.8155 17.8471 98.6461 17.6067 98.5307 17.3395C98.4153 17.0722 98.3564 16.7839 98.3579 16.4927C98.3593 16.2015 98.421 15.9138 98.539 15.6477C98.657 15.3816 98.8288 15.143 99.0436 14.9468C99.2583 14.7506 99.5114 14.6012 99.7867 14.5079C100.062 14.4146 100.354 14.3796 100.643 14.405C100.933 14.4304 101.214 14.5156 101.469 14.6554ZM99.8171 16.3854C99.9606 16.3854 100.101 16.3428 100.22 16.2629C100.34 16.183 100.433 16.0694 100.488 15.9366C100.542 15.8037 100.557 15.6575 100.529 15.5165C100.501 15.3754 100.432 15.2459 100.33 15.1442C100.229 15.0425 100.099 14.9732 99.9587 14.9452C99.8179 14.9171 99.672 14.9315 99.5394 14.9865C99.4068 15.0416 99.2934 15.1348 99.2137 15.2544C99.134 15.3739 99.0914 15.5145 99.0914 15.6583C99.0914 15.8512 99.1678 16.0361 99.3039 16.1725C99.44 16.3088 99.6246 16.3854 99.8171 16.3854Z" fill="#221E20"/>
    <path d="M110.64 13.9531C111.013 14.0251 111.357 14.2084 111.624 14.4791C111.892 14.7498 112.072 15.0951 112.141 15.4701C113.042 19.2937 107.024 19.6448 107.512 15.9465C107.687 14.6677 108.563 13.552 110.64 13.9531ZM109.038 16.1721C109.214 16.1721 109.386 16.1199 109.532 16.0221C109.678 15.9243 109.792 15.7853 109.859 15.6226C109.926 15.46 109.944 15.281 109.909 15.1084C109.875 14.9357 109.791 14.7771 109.666 14.6526C109.542 14.5281 109.384 14.4434 109.212 14.409C109.039 14.3747 108.861 14.3923 108.698 14.4597C108.536 14.527 108.397 14.6411 108.3 14.7875C108.202 14.9339 108.15 15.106 108.15 15.282C108.153 15.5159 108.248 15.7391 108.414 15.9033C108.581 16.0675 108.805 16.1596 109.038 16.1596V16.1721Z" fill="#221E20"/>
    <path d="M0.150198 36.6277C0.0567484 36.3833 0.00596162 36.1246 5.75838e-05 35.863C-0.0019593 35.5883 0.0490218 35.3159 0.150198 35.0606C0.374376 35.0912 0.601661 35.0912 0.825839 35.0606C1.55153 34.9729 2.75266 34.2332 3.19057 28.4663L3.70356 21.8345H11.5735V36.5274C11.2423 36.6335 10.895 36.6802 10.5475 36.6653C10.1914 36.6951 9.83303 36.648 9.49654 36.5274V23.4642H5.55531L5.16745 28.4789C4.61693 35.9382 2.51494 36.7405 1.16366 36.7405C0.82198 36.7578 0.479755 36.7197 0.150198 36.6277Z" fill="white"/>
    <path d="M18.1673 25.6333C21.0075 25.6333 22.7341 27.1753 22.7341 31.2622C22.7341 35.3492 20.9824 36.8912 18.1673 36.8912C15.3521 36.8912 13.6005 35.3366 13.6005 31.3124C13.6005 27.2881 15.3271 25.6333 18.1673 25.6333ZM18.1673 27.2255C16.6659 27.2255 15.6649 28.0905 15.6649 31.2622C15.6649 34.434 16.6283 35.299 18.1673 35.299C19.7062 35.299 20.6697 34.434 20.6697 31.2622C20.6697 28.0905 19.6687 27.2129 18.1673 27.2129V27.2255Z" fill="white"/>
    <path d="M26.7879 36.5525C26.4479 36.6576 26.0925 36.7042 25.7369 36.6904C25.3936 36.7052 25.0504 36.6585 24.7234 36.5525V26.0092C25.0531 25.8956 25.4011 25.8445 25.7494 25.8588C26.0973 25.8534 26.4437 25.9042 26.7754 26.0092V30.2967H31.1796V26.0092C31.5119 25.9069 31.8579 25.8561 32.2055 25.8588C32.5535 25.8507 32.9004 25.9015 33.2315 26.0092V36.5525C32.892 36.6603 32.5362 36.707 32.1805 36.6904C31.8375 36.6996 31.4952 36.653 31.167 36.5525V31.9641H26.7879V36.5525Z" fill="white"/>
    <path d="M41.5269 25.834C41.6385 26.1085 41.6938 26.4026 41.6895 26.699C41.6944 26.9832 41.639 27.2653 41.5269 27.5264H37.2853V36.5277C36.9541 36.6339 36.6068 36.6806 36.2594 36.6656C35.9117 36.687 35.5632 36.6401 35.2334 36.5277V25.834H41.5269Z" fill="white"/>
    <path d="M56.3533 21.9849C56.6972 21.8985 57.0499 21.8522 57.4043 21.847C57.7834 21.8548 58.1606 21.901 58.5304 21.9849L53.8635 28.7421L59.1185 36.5273C58.7104 36.6347 58.2888 36.6811 57.8673 36.6652C57.4458 36.6799 57.0244 36.6334 56.6161 36.5273L52.1243 29.8077H50.6229V36.5273C50.2849 36.6414 49.9279 36.6883 49.5719 36.6652C49.2165 36.6763 48.8616 36.6297 48.5209 36.5273V21.9849C48.8653 21.8798 49.2247 21.8332 49.5844 21.847C49.9319 21.832 50.2792 21.8787 50.6104 21.9849V28.1278H52.1118L56.3533 21.9849Z" fill="white"/>
    <path d="M61.4583 31.9767C61.3458 31.7382 61.2942 31.4754 61.3082 31.212C61.301 30.945 61.3523 30.6797 61.4583 30.4347H65.3745C65.2119 28.316 64.311 27.2254 62.5593 27.2254C61.8755 27.2221 61.1956 27.3279 60.5449 27.5388C60.191 27.1673 59.9938 26.6733 59.9944 26.1597C60.9038 25.7758 61.886 25.596 62.8721 25.6332C65.9 25.6332 67.439 27.5889 67.439 31.2621C67.439 34.9354 65.875 36.8786 62.8721 36.8786C61.7956 36.9252 60.7235 36.7147 59.7442 36.2643C59.7414 35.9989 59.7959 35.736 59.9038 35.4937C60.0118 35.2514 60.1707 35.0353 60.3698 34.8602C61.0509 35.0915 61.7651 35.2101 62.4843 35.2112C64.2735 35.2112 65.2369 34.1581 65.3995 31.9767H61.4583Z" fill="white"/>
    <path d="M76.047 25.8338C76.2659 26.3897 76.2659 27.008 76.047 27.5639H72.9816V36.5276C72.6504 36.6337 72.3031 36.6804 71.9557 36.6655C71.608 36.6868 71.2595 36.64 70.9297 36.5276V27.5513H67.8768C67.7546 27.2794 67.6913 26.9846 67.6913 26.6863C67.6913 26.3881 67.7546 26.0932 67.8768 25.8213L76.047 25.8338Z" fill="white"/>
</svg>
