<svg xmlns="http://www.w3.org/2000/svg" display="none">

    <symbol id="location" viewBox="0 0 10 14">
        <path fill-rule="evenodd" clip-rule="evenodd"
              d="M7 5C7 6.10457 6.10457 7 5 7C3.89543 7 3 6.10457 3 5C3 3.89543 3.89543 3 5 3C6.10457 3 7 3.89543 7 5ZM6 5C6 5.55228 5.55228 6 5 6C4.44772 6 4 5.55228 4 5C4 4.44772 4.44772 4 5 4C5.55228 4 6 4.44772 6 5Z"/>
        <path fill-rule="evenodd" clip-rule="evenodd"
              d="M10 5C10 7.54212 8.30505 10.4886 5.69532 13.2811C5.47019 13.522 5.23825 13.7618 5 14C4.76175 13.7618 4.52981 13.522 4.30468 13.2811C1.69495 10.4886 0 7.54212 0 5C0 2.23858 2.23858 0 5 0C7.76142 0 10 2.23858 10 5ZM9 5C9 6.14699 8.58085 7.47358 7.75696 8.91405C7.07421 10.1077 6.13547 11.3409 5 12.5605C3.86454 11.3409 2.92579 10.1077 2.24304 8.91405C1.41915 7.47358 1 6.14699 1 5C1 2.79086 2.79086 1 5 1C7.20914 1 9 2.79086 9 5Z"/>
    </symbol>

    <symbol id="phone" viewBox="0 0 14 14">
        <path d="M14 0H9.99999V1H12.2929L8.14644 5.14645L8.85355 5.85355L13 1.70711V4H14V0Z"/>
        <path fill-rule="evenodd" clip-rule="evenodd"
              d="M10.9664 8.73441L13.3062 10.272C13.7154 10.541 13.9602 10.9581 13.9957 11.4464C14.031 11.9348 13.8489 12.3828 13.4829 12.7079C12.51 13.5718 11.2924 14 10.077 14C8.7585 14 7.44269 13.4962 6.44432 12.4978L1.5023 7.55568C-0.41654 5.63696 -0.508834 2.54528 1.29225 0.517169C1.61722 0.151057 2.06514 -0.0309376 2.5536 0.0043062C3.04206 0.0397858 3.45909 0.284607 3.72796 0.693742L5.2656 3.03363C5.63159 3.59057 5.59988 4.31372 5.18662 4.83307C4.82476 5.28782 4.86177 5.94071 5.27267 6.35162L7.64838 8.72733C8.0594 9.13835 8.71217 9.17537 9.16704 8.81338C9.68627 8.40024 10.4093 8.36841 10.9664 8.73441ZM7.08424 11.8578C8.66479 13.4383 11.2114 13.5145 12.8818 12.0311C13.0368 11.8934 13.1079 11.7187 13.0928 11.5118C13.0778 11.3051 12.9823 11.1424 12.8091 11.0286L10.4692 9.49091C10.2364 9.33791 9.94641 9.34993 9.73059 9.52168C8.91527 10.1704 7.74503 10.1041 7.00833 9.36738L4.63262 6.99166C3.89592 6.25496 3.82956 5.08472 4.47833 4.2694C4.64995 4.05358 4.66209 3.76361 4.50909 3.53069L2.97145 1.19093C2.85759 1.01754 2.69493 0.92206 2.48818 0.907091C2.47003 0.905794 2.45223 0.905087 2.43478 0.905087C2.25102 0.905087 2.0946 0.976635 1.96895 1.1182C0.485534 2.78857 0.561679 5.3352 2.14223 6.91575L7.08424 11.8578Z"/>
    </symbol>

    <symbol id="social-1" viewBox="0 0 16 16">
        <path d="M6 10.5981C6 10.983 6.41667 11.2235 6.75 11.0311L11.25 8.43301C11.5833 8.24056 11.5833 7.75944 11.25 7.56699L6.75 4.96891C6.41667 4.77646 6 5.01702 6 5.40192L6 10.5981Z"/>
        <path fill-rule="evenodd" clip-rule="evenodd"
              d="M0 8C0 6.13872 0 4.20808 0.244717 3.45492C0.739307 1.93273 1.93273 0.739307 3.45492 0.244717C4.20808 0 5.13872 0 7 0H9C10.8613 0 11.7919 0 12.5451 0.244717C14.0673 0.739307 15.2607 1.93273 15.7553 3.45492C16 4.20808 16 6.13872 16 8C16 9.86128 16 11.7919 15.7553 12.5451C15.2607 14.0673 14.0673 15.2607 12.5451 15.7553C11.7919 16 10.8613 16 9 16H7C5.13872 16 4.20808 16 3.45492 15.7553C1.93273 15.2607 0.739307 14.0673 0.244717 12.5451C0 11.7919 0 9.86128 0 8ZM7 1H9C10.9391 1 11.6715 1.01234 12.2361 1.19577C13.4538 1.59145 14.4086 2.54618 14.8042 3.76393C14.9877 4.32849 15 6.06089 15 8C15 9.93911 14.9877 11.6715 14.8042 12.2361C14.4086 13.4538 13.4538 14.4086 12.2361 14.8042C11.6715 14.9877 10.9391 15 9 15H7C5.06089 15 4.32849 14.9877 3.76393 14.8042C2.54618 14.4086 1.59145 13.4538 1.19577 12.2361C1.01234 11.6715 1 9.93911 1 8C1 6.06089 1.01234 4.32849 1.19577 3.76393C1.59145 2.54618 2.54618 1.59145 3.76393 1.19577C4.32849 1.01234 5.06089 1 7 1Z"/>
    </symbol>

    <symbol id="social-2" viewBox="0 0 16 16">
        <path fill-rule="evenodd" clip-rule="evenodd"
              d="M6 4V12H8.5C8.91335 12 9.52223 11.8801 10.0422 11.5058C10.5876 11.1131 11 10.463 11 9.5V6.5C11 6.08665 10.8801 5.47777 10.5058 4.95785C10.1131 4.41243 9.46296 4 8.5 4H6ZM7.5 10.5V5.5H8C8.63704 5.5 8.98693 5.75423 9.19423 6.04215C9.41989 6.35557 9.5 6.74668 9.5 7V9C9.5 9.63704 9.24577 9.98693 8.95785 10.1942C8.64443 10.4199 8.25332 10.5 8 10.5H7.5Z"/>
        <path fill-rule="evenodd" clip-rule="evenodd"
              d="M0 2C0 0.895431 0.895431 0 2 0H14C15.1046 0 16 0.895431 16 2V14C16 15.1046 15.1046 16 14 16H2C0.895431 16 0 15.1046 0 14V2ZM2 1H14C14.5523 1 15 1.44772 15 2V14C15 14.5523 14.5523 15 14 15H2C1.44772 15 1 14.5523 1 14V2C1 1.44772 1.44772 1 2 1Z"/>
    </symbol>

    <symbol id="social-3" viewBox="0 0 16 16">
        <path d="M12.4148 9.67252C12.3706 9.62666 12.3295 9.58412 12.2945 9.54544C12.2165 9.45923 12.1187 9.3682 12.017 9.27341C11.7375 9.01303 11.4277 8.72437 11.4115 8.42981C11.3904 8.04151 11.7947 7.5499 12.0801 7.20285C12.1677 7.09634 12.2441 7.00344 12.2936 6.93133C12.6551 6.40691 13 5.22448 13 5.22448L10.7943 5.20953C10.7943 5.20953 10.0088 7.39693 9.08904 7.91935C8.74011 7.66756 8.80686 7.08974 8.87306 6.51672C8.93111 6.01424 8.98873 5.51545 8.76527 5.24342C8.43598 4.84263 6.39864 4.95031 6.32322 5.46675C6.54673 5.53754 6.76288 5.61032 6.85302 5.81869C7.07929 6.33314 7.01306 7.8685 6.6479 7.91935C6.45341 7.94613 6.27342 7.66517 6.14445 7.46386C6.12461 7.43288 6.10597 7.40378 6.08867 7.37798C6.05708 7.33029 6.02569 7.28369 5.99456 7.23748C5.87342 7.05766 5.75639 6.88392 5.64809 6.6761C5.48804 6.36903 4.88374 5.17762 4.88374 5.17762L3 5.1846C3 5.1846 3.66041 6.98517 4.11755 7.82364C5.06126 9.55441 6.13098 11.338 8.7947 10.8834C8.85056 10.7214 8.87192 10.5346 8.89237 10.3558C8.93423 9.98991 8.97224 9.65757 9.29415 9.64015C9.51357 9.62949 9.68506 9.85494 9.82552 10.0396C9.85582 10.0794 9.88467 10.1174 9.91225 10.1506C9.97119 10.2221 10.0223 10.2909 10.0712 10.3568C10.1643 10.4823 10.2497 10.5974 10.3666 10.7C10.7456 11.03 11.119 11.015 11.7491 10.9861C11.8821 10.9803 12.0161 10.9847 12.1441 10.9889C12.547 11.002 12.8902 11.0132 12.9558 10.7C13.0359 10.3164 12.6715 9.93864 12.4148 9.67252Z"/>
        <path fill-rule="evenodd" clip-rule="evenodd"
              d="M0 2C0 0.895431 0.895431 0 2 0H14C15.1046 0 16 0.895431 16 2V14C16 15.1046 15.1046 16 14 16H2C0.895431 16 0 15.1046 0 14V2ZM2 1H14C14.5523 1 15 1.44772 15 2V14C15 14.5523 14.5523 15 14 15H2C1.44772 15 1 14.5523 1 14V2C1 1.44772 1.44772 1 2 1Z"/>
    </symbol>

    <symbol id="social-4" viewBox="0 0 16 16">
        <path d="M11.5 4.06599C11.7944 4.06599 12.033 3.82736 12.033 3.533C12.033 3.23863 11.7944 3 11.5 3C11.2056 3 10.967 3.23863 10.967 3.533C10.967 3.82736 11.2056 4.06599 11.5 4.06599Z"/>
        <path fill-rule="evenodd" clip-rule="evenodd"
              d="M12 8C12 10.2091 10.2091 12 8 12C5.79086 12 4 10.2091 4 8C4 5.79086 5.79086 4 8 4C10.2091 4 12 5.79086 12 8ZM11 8C11 9.65685 9.65685 11 8 11C6.34315 11 5 9.65685 5 8C5 6.34315 6.34315 5 8 5C9.65685 5 11 6.34315 11 8Z"/>
        <path fill-rule="evenodd" clip-rule="evenodd"
              d="M5 0H11C13.761 0 16 2.239 16 5V11C16 13.761 13.761 16 11 16H5C2.239 16 0 13.761 0 11V5C0 2.239 2.239 0 5 0ZM11 15C12.93 15 15 12.93 15 11V5C15 3.07 12.93 1 11 1H5C3.07 1 1 3.07 1 5V11C1 12.93 3.07 15 5 15H11Z"/>
    </symbol>

    <symbol id="basket" viewBox="0 0 16 16">
        <path d="M5.50002 7C5.22388 7 5.00002 7.22386 5.00002 7.5V8.5C5.00002 8.77614 5.22388 9 5.50002 9C5.77617 9 6.00002 8.77614 6.00002 8.5V7.5C6.00002 7.22386 5.77617 7 5.50002 7Z"/>
        <path d="M7.00002 7.5C7.00002 7.22386 7.22388 7 7.50002 7C7.77617 7 8.00002 7.22386 8.00002 7.5V8.5C8.00002 8.77614 7.77617 9 7.50002 9C7.22388 9 7.00002 8.77614 7.00002 8.5V7.5Z"/>
        <path d="M9.50002 7C9.22388 7 9.00002 7.22386 9.00002 7.5V8.5C9.00002 8.77614 9.22388 9 9.50002 9C9.77617 9 10 8.77614 10 8.5V7.5C10 7.22386 9.77617 7 9.50002 7Z"/>
        <path fill-rule="evenodd" clip-rule="evenodd"
              d="M12.0525 2L11.8303 4H0.837158L3.12287 12H11.9475L12.9475 3H14.5C14.7762 3 15 2.77614 15 2.5C15 2.22386 14.7762 2 14.5 2H12.0525ZM2.16289 5H11.7192L11.0525 11H3.87717L2.16289 5Z"/>
        <path d="M4.50002 13C4.22388 13 4.00002 13.2239 4.00002 13.5C4.00002 13.7761 4.22388 14 4.50002 14H5.50002C5.77617 14 6.00002 13.7761 6.00002 13.5C6.00002 13.2239 5.77617 13 5.50002 13H4.50002Z"/>
        <path d="M9.00002 13.5C9.00002 13.2239 9.22388 13 9.50002 13H10.5C10.7762 13 11 13.2239 11 13.5C11 13.7761 10.7762 14 10.5 14H9.50002C9.22388 14 9.00002 13.7761 9.00002 13.5Z"/>
    </symbol>

    <symbol id="entrance" viewBox="0 0 16 16">
        <path d="M12.8 2H3.2C3.09992 2 3.03251 2.03128 3 2.05467V13.9453C3.03251 13.9687 3.09992 14 3.2 14H12.8C12.9001 14 12.9675 13.9687 13 13.9453V11H14V14C14 14.5523 13.4627 15 12.8 15H3.2C2.53726 15 2 14.5523 2 14V2C2 1.44772 2.53726 1 3.2 1H12.8C13.4627 1 14 1.44772 14 2V5H13V2.05467C12.9675 2.03128 12.9001 2 12.8 2Z"/>
        <path d="M8.64645 4.64645L5.29289 8L8.64645 11.3536L9.35355 10.6464L7.20711 8.5H13V7.5H7.20711L9.35355 5.35355L8.64645 4.64645Z"/>
    </symbol>

    <symbol id="search" viewBox="0 0 16 16">
        <path fill-rule="evenodd" clip-rule="evenodd"
              d="M10.1644 10.8715C9.30243 11.5768 8.20063 12 7 12C4.23858 12 2 9.76142 2 7C2 4.23858 4.23858 2 7 2C9.76142 2 12 4.23858 12 7C12 8.20063 11.5768 9.30243 10.8715 10.1644L14.3536 13.6464C14.5488 13.8417 14.5488 14.1583 14.3536 14.3536C14.1583 14.5488 13.8417 14.5488 13.6464 14.3536L10.1644 10.8715ZM11 7C11 9.20914 9.20914 11 7 11C4.79086 11 3 9.20914 3 7C3 4.79086 4.79086 3 7 3C9.20914 3 11 4.79086 11 7Z"/>
    </symbol>

    <symbol id="arrow-left" viewBox="0 0 16 29">
        <path d="M14.5 1L1 14.5L14.5 28" stroke-width="2" stroke-linecap="round" stroke-linejoin="round"/>
    </symbol>

    <symbol id="arrow-right" viewBox="0 0 16 29">
        <path d="M1.5 28L15 14.5L1.5 1" stroke-width="2" stroke-linecap="round" stroke-linejoin="round"/>
    </symbol>

    <symbol id="calendar" viewBox="0 0 12 11">
        <path d="M3 5H4V6H3V5Z"/>
        <path d="M5 7H4V8H5V7Z"/>
        <path d="M5 5H6V6H5V5Z"/>
        <path d="M7 7H6V8H7V7Z"/>
        <path d="M7 5H8V6H7V5Z"/>
        <path d="M9 7H8V8H9V7Z"/>
        <path fill-rule="evenodd" clip-rule="evenodd"
              d="M3 0H4V1H8V0H9V1H12V10C12 10.5523 11.5523 11 11 11H1C0.447715 11 0 10.5523 0 10V1H3V0ZM8 2V3H9V2H11V10H1L1 2H3V3H4V2H8Z"/>
    </symbol>
    <symbol id="delete" viewBox="0 0 14 14">
        <path fill-rule="evenodd" clip-rule="evenodd"
              d="M3.77208 0.683772C3.90819 0.27543 4.29033 0 4.72076 0H9.27924C9.70967 0 10.0918 0.27543 10.2279 0.683772L10.6667 2H13.5C13.7761 2 14 2.22386 14 2.5C14 2.77614 13.7761 3 13.5 3H0.5C0.223858 3 0 2.77614 0 2.5C0 2.22386 0.223857 2 0.5 2H3.33333L3.77208 0.683772ZM5 1.5C5 1.77614 5.22386 2 5.5 2H8.5C8.77614 2 9 1.77614 9 1.5C9 1.22386 8.77614 1 8.5 1H5.5C5.22386 1 5 1.22386 5 1.5Z"/>
        <path d="M2 4H3L3.80995 12.0995C3.86107 12.6107 4.29124 13 4.80499 13H9.19501C9.70876 13 10.1389 12.6107 10.1901 12.0995L11 4H12L11.09 13.0995C11.0389 13.6107 10.6088 14 10.095 14H3.90499C3.39124 14 2.96107 13.6107 2.90995 13.0995L2 4Z"/>
        <path d="M6 6V7H8V6H6Z"/>
        <path d="M6 9V8H8V9H6Z"/>
        <path d="M6 10V11H8V10H6Z"/>
    </symbol>

</svg>